HIERARCHY
ROOT Hips
{
	OFFSET -14.64140 90.27770 -84.91600
	CHANNELS 6 Xposition Yposition Zposition Zrotation Xrotation Yrotation
	JOINT Spine
	{
		OFFSET 0.00000 13.20850 -1.60436
		CHANNELS 3 Zrotation Xrotation Yrotation
		JOINT Spine1
		{
			OFFSET 0.00000 8.61716 0.00000
			CHANNELS 3 Zrotation Xrotation Yrotation
			JOINT Spine2
			{
				OFFSET 0.00000 8.61717 0.00000
				CHANNELS 3 Zrotation Xrotation Yrotation
				JOINT Spine3
				{
					OFFSET 0.00000 8.61717 0.00000
					CHANNELS 3 Zrotation Xrotation Yrotation
					JOINT Neck
					{
						OFFSET 0.00000 11.07920 1.10792
						CHANNELS 3 Zrotation Xrotation Yrotation
						JOINT Neck1
						{
							OFFSET 0.00000 7.08032 0.00000
							CHANNELS 3 Zrotation Xrotation Yrotation
							JOINT Head
							{
								OFFSET 0.00000 7.08031 0.00000
								CHANNELS 3 Zrotation Xrotation Yrotation
								End site
								{
									OFFSET 0.00000 0.00000 0.00000
								}
							}
						}
					}
					JOINT RightShoulder
					{
						OFFSET -0.01000 7.91373 5.19711
						CHANNELS 3 Zrotation Xrotation Yrotation
						JOINT RightArm
						{
							OFFSET -18.41580 0.00000 0.00000
							CHANNELS 3 Zrotation Xrotation Yrotation
							JOINT RightForeArm
							{
								OFFSET -29.11090 0.00000 0.00000
								CHANNELS 3 Zrotation Xrotation Yrotation
								JOINT RightHand
								{
									OFFSET -24.65040 0.00000 0.00000
									CHANNELS 3 Zrotation Xrotation Yrotation
									JOINT RightHandThumb1
									{
										OFFSET -5.35114 -0.85590 3.97906
										CHANNELS 3 Zrotation Xrotation Yrotation
										JOINT RightHandThumb2
										{
											OFFSET -4.52789 0.00000 0.00000
											CHANNELS 3 Zrotation Xrotation Yrotation
											JOINT RightHandThumb3
											{
												OFFSET -2.46976 0.00000 0.00000
												CHANNELS 3 Zrotation Xrotation Yrotation
												End site
												{
													OFFSET 0.00000 0.00000 0.00000
												}
											}
										}
									}
									JOINT RightHandIndex1
									{
										OFFSET -14.26970 0.00000 2.88139
										CHANNELS 3 Zrotation Xrotation Yrotation
										JOINT RightHandIndex2
										{
											OFFSET -5.48836 0.00000 0.00000
											CHANNELS 3 Zrotation Xrotation Yrotation
											JOINT RightHandIndex3
											{
												OFFSET -3.01859 0.00000 0.00000
												CHANNELS 3 Zrotation Xrotation Yrotation
												End site
												{
													OFFSET 0.00000 0.00000 0.00000
												}
											}
										}
									}
									JOINT RightHandMiddle1
									{
										OFFSET -14.26970 0.00000 -0.09147
										CHANNELS 3 Zrotation Xrotation Yrotation
										JOINT RightHandMiddle2
										{
											OFFSET -6.17441 0.00000 0.00000
											CHANNELS 3 Zrotation Xrotation Yrotation
											JOINT RightHandMiddle3
											{
												OFFSET -3.56743 0.00000 0.00000
												CHANNELS 3 Zrotation Xrotation Yrotation
												End site
												{
													OFFSET 0.00000 0.00000 0.00000
												}
											}
										}
									}
									JOINT RightHandRing1
									{
										OFFSET -12.69180 0.00000 -3.06433
										CHANNELS 3 Zrotation Xrotation Yrotation
										JOINT RightHandRing2
										{
											OFFSET -5.62556 0.00000 0.00000
											CHANNELS 3 Zrotation Xrotation Yrotation
											JOINT RightHandRing3
											{
												OFFSET -3.56744 0.00000 0.00000
												CHANNELS 3 Zrotation Xrotation Yrotation
												End site
												{
													OFFSET 0.00000 0.00000 0.00000
												}
											}
										}
									}
									JOINT RightHandPinky1
									{
										OFFSET -11.11390 0.00000 -6.03719
										CHANNELS 3 Zrotation Xrotation Yrotation
										JOINT RightHandPinky2
										{
											OFFSET -4.52789 0.00000 0.00000
											CHANNELS 3 Zrotation Xrotation Yrotation
											JOINT RightHandPinky3
											{
												OFFSET -2.46976 0.00000 0.00000
												CHANNELS 3 Zrotation Xrotation Yrotation
												End site
												{
													OFFSET 0.00000 0.00000 0.00000
												}
											}
										}
									}
								}
							}
						}
					}
					JOINT LeftShoulder
					{
						OFFSET 0.01000 7.91373 5.19711
						CHANNELS 3 Zrotation Xrotation Yrotation
						JOINT LeftArm
						{
							OFFSET 18.41580 0.00000 0.00000
							CHANNELS 3 Zrotation Xrotation Yrotation
							JOINT LeftForeArm
							{
								OFFSET 29.11090 0.00000 0.00000
								CHANNELS 3 Zrotation Xrotation Yrotation
								JOINT LeftHand
								{
									OFFSET 24.65040 0.00000 0.00000
									CHANNELS 3 Zrotation Xrotation Yrotation
									JOINT LeftHandThumb1
									{
										OFFSET 5.35114 -0.85590 3.97906
										CHANNELS 3 Zrotation Xrotation Yrotation
										JOINT LeftHandThumb2
										{
											OFFSET 4.52789 0.00000 0.00000
											CHANNELS 3 Zrotation Xrotation Yrotation
											JOINT LeftHandThumb3
											{
												OFFSET 2.46977 0.00000 0.00000
												CHANNELS 3 Zrotation Xrotation Yrotation
												End site
												{
													OFFSET 0.00000 0.00000 0.00000
												}
											}
										}
									}
									JOINT LeftHandIndex1
									{
										OFFSET 14.26970 0.00000 2.88139
										CHANNELS 3 Zrotation Xrotation Yrotation
										JOINT LeftHandIndex2
										{
											OFFSET 5.48836 0.00000 0.00000
											CHANNELS 3 Zrotation Xrotation Yrotation
											JOINT LeftHandIndex3
											{
												OFFSET 3.01859 0.00000 0.00000
												CHANNELS 3 Zrotation Xrotation Yrotation
												End site
												{
													OFFSET 0.00000 0.00000 0.00000
												}
											}
										}
									}
									JOINT LeftHandMiddle1
									{
										OFFSET 14.26970 0.00000 -0.09147
										CHANNELS 3 Zrotation Xrotation Yrotation
										JOINT LeftHandMiddle2
										{
											OFFSET 6.17440 0.00000 0.00000
											CHANNELS 3 Zrotation Xrotation Yrotation
											JOINT LeftHandMiddle3
											{
												OFFSET 3.56744 0.00000 0.00000
												CHANNELS 3 Zrotation Xrotation Yrotation
												End site
												{
													OFFSET 0.00000 0.00000 0.00000
												}
											}
										}
									}
									JOINT LeftHandRing1
									{
										OFFSET 12.69180 0.00000 -3.06433
										CHANNELS 3 Zrotation Xrotation Yrotation
										JOINT LeftHandRing2
										{
											OFFSET 5.62556 0.00000 0.00000
											CHANNELS 3 Zrotation Xrotation Yrotation
											JOINT LeftHandRing3
											{
												OFFSET 3.56744 0.00000 0.00000
												CHANNELS 3 Zrotation Xrotation Yrotation
												End site
												{
													OFFSET 0.00000 0.00000 0.00000
												}
											}
										}
									}
									JOINT LeftHandPinky1
									{
										OFFSET 11.11390 0.00000 -6.03719
										CHANNELS 3 Zrotation Xrotation Yrotation
										JOINT LeftHandPinky2
										{
											OFFSET 4.52789 0.00000 0.00000
											CHANNELS 3 Zrotation Xrotation Yrotation
											JOINT LeftHandPinky3
											{
												OFFSET 2.46976 0.00000 0.00000
												CHANNELS 3 Zrotation Xrotation Yrotation
												End site
												{
													OFFSET 0.00000 0.00000 0.00000
												}
											}
										}
									}
								}
							}
						}
					}
					JOINT pCube4
					{
						OFFSET 0.00000 10.91090 1.10792
						CHANNELS 3 Zrotation Xrotation Yrotation
						End site
						{
							OFFSET 0.00000 0.00000 0.00000
						}
					}
				}
			}
		}
	}
	JOINT RightUpLeg
	{
		OFFSET -9.98441 0.00000 0.00000
		CHANNELS 3 Zrotation Xrotation Yrotation
		JOINT RightLeg
		{
			OFFSET 0.00000 -42.11790 0.00000
			CHANNELS 3 Zrotation Xrotation Yrotation
			JOINT RightFoot
			{
				OFFSET 0.00000 -45.00020 -0.00001
				CHANNELS 3 Zrotation Xrotation Yrotation
				JOINT RightForeFoot
				{
					OFFSET 0.00000 -3.74820 0.00000
					CHANNELS 3 Zrotation Xrotation Yrotation
					JOINT RightToeBase
					{
						OFFSET 0.00000 0.06325 14.43120
						CHANNELS 3 Zrotation Xrotation Yrotation
						End site
						{
							OFFSET 0.00000 0.00000 0.00000
						}
					}
				}
			}
		}
	}
	JOINT LeftUpLeg
	{
		OFFSET 9.98441 0.00000 0.00000
		CHANNELS 3 Zrotation Xrotation Yrotation
		JOINT LeftLeg
		{
			OFFSET 0.00000 -42.11800 0.00000
			CHANNELS 3 Zrotation Xrotation Yrotation
			JOINT LeftFoot
			{
				OFFSET 0.00000 -45.00070 0.00000
				CHANNELS 3 Zrotation Xrotation Yrotation
				JOINT LeftForeFoot
				{
					OFFSET 0.00000 -3.74824 0.00000
					CHANNELS 3 Zrotation Xrotation Yrotation
					JOINT LeftToeBase
					{
						OFFSET 0.00000 0.06325 14.43110
						CHANNELS 3 Zrotation Xrotation Yrotation
						End site
						{
							OFFSET 0.00000 0.00000 0.00000
						}
					}
				}
			}
		}
	}
}
MOTION
Frames: 4
Frame Time: 0.050000
-0.025728306975817614 -0.04015842145324813 0.0033233858845067993 0.017531522120084075 -0.031914432890417864 0.0121734635234865 -3.133576044118267 0.9504686309526714 -0.7406496521878102 -0.7832629568776043 3.48678148986545 0.30607919857137506 -0.8424649454903185 -1.9411901083974192 -2.1841566383970292 -0.9713582685143657 -0.08613171737561537 -0.9374267309791964 -2.0131981377894888 11.583468260363768 4.784381412466036 -0.18683148559679483 -0.4977002082225653 10.297934238191404 -1.6367335942696586 -15.288286673701169 0.9128649208916821 -1.911479182279118 1.2512366125316907 -12.640333346961574 69.16131332623253 14.348176139680028 4.555238911068227 51.5956169433871 9.994044889376857 91.64815128147916 21.49803228418201 -0.2384604391813745 -4.316996268089169 4.574959522230945 -0.11147438997744918 -1.5501704557484894 0.0460022860846078 -0.0453437551760738 -56.27254362041387 0.037287744671422575 0.036317847302391654 -56.19692523847186 -38.744248941866196 -0.0021476053958796194 -0.0465806956345264 -0.02580516476392055 -0.021870737516328287 -0.013486471758047375 0.011657322196787433 -0.0007956470801532776 -0.025435543115929677 -36.705825853042796 -0.039380790548256064 -0.03508607407216615 0.006251699340811824 -0.04847085450451701 -0.032094898318938914 0.01326134278140464 -0.002654537556064195 0.014704148663681643 -19.789546103937234 -0.03202838036447796 -0.03543984712620356 -0.003354468333638942 0.04220969393601385 0.049408434217927864 0.030588002117695457 0.043112568360752265 -0.03342438804969189 24.010825840158567 -0.0023708441334583546 0.0008593123570124311 28.83316809909794 0.038177466098100854 -0.01855963552441508 28.851839183268925 0.008499102354426918 0.04178568783830339 8.299225144588997 1.9544060108577146 11.652465428410325 -67.02803683127738 12.363490941256297 -20.5322391692088 -70.99275555511642 6.958690015034187 -101.99443543955991 -21.647330705345723 1.0327789993858714 -2.287046004270297 -0.5124707848433139 0.0460695969861739 -8.082653154052473 0.012863626362680012 0.023164934324613046 44.598791593125554 0.015579740071669724 -0.019728614650887426 44.575676478149006 12.454514670853797 -0.04623945331261824 0.01139506673997883 -0.008787402804530903 0.0030076956249670936 0.012652295248699494 0.020602986858433463 0.02070547752919842 0.03528513506648332 11.072274999120564 -0.006493999542585879 0.04891245786493561 0.01826342558074077 -0.036604437725994345 0.046739452959548185 -0.01062347582195445 0.030416084750622945 0.001900701842297373 4.804429583575413 0.0025941997781873463 -0.021436955994925785 0.00987788185126565 0.0025677923755173136 0.03946495105626264 0.006332313162154847 -0.018900335006026146 0.034108478419415784 -5.56556769094659 -0.01830456204272305 -0.015350786879090755 -6.718922089381918 0.0433812888509974 0.0023141321116370932 -6.726517520473022 0.0041732906847645225 -0.025427192039783192 0.008317315253918003 0.02663862673654065 0.02789756499223257 8.09454473285985 3.472534561225972 -19.23693896437902 -0.0026229427656464127 10.425762281908558 0.026867953888466304 -5.605762648747397 -15.661103789931612 3.162518502101597 -0.00980457068927934 0.029107985617491623 0.020572866449856356 -0.026030642146224525 4.666268559867494 0.03781144259748619 12.471636986026668 -8.235116338846167 6.927011602443898 -0.0029905764676527785 46.380278483603576 -0.0026195480093573233 -4.348601433505827 -14.79470064122872 -3.8432759648308945 -0.00240044175028916 -0.04953685266993128 -0.04032013007811557 -0.014347898451973666 -10.731230249316178 -0.03399361242364773 
0.0006532214599118871 0.003544802838378217 -0.015582294560075231 -0.03813427247950158 -0.04394058598794824 -0.023187521916005593 -3.198448739676554 0.9777728456964448 -0.7225643822169652 -0.756568553178238 3.465769810618581 0.30366551703802597 -0.8502535503726109 -1.9589241550830632 -2.1824973546896724 -0.9664860861034369 -0.06849804049220379 -0.9440710392429152 -1.9712948560813384 11.493147194008753 4.685926780450708 -0.18056711025628017 -0.5700919298603182 10.158760673138492 -1.6106622564056072 -15.391840344764352 0.8648026933192762 -2.002993948573334 1.2635567840886226 -12.58810390588706 69.68381548540066 15.043782584873568 5.0796086438867905 49.5585391643342 9.616931617282782 92.69329330111341 21.64837486096334 -0.21597254671211125 -4.433335895139198 4.5665083291446456 -0.07781165316489722 -1.5892189610078817 -0.046214061084021575 -0.027902866183394076 -56.19317085622736 0.009694848443418854 -0.0103470875140489 -56.209536377136395 -38.810542762264944 -0.04379193913472649 0.0409250262187065 0.03503054495039191 -0.029423904801090448 0.020555168253948056 0.011428565072517272 0.007754125041526893 0.0008830925132491704 -36.7127794510798 0.014634764770358664 0.028858053018436264 0.045576333318279434 -0.03424259512186782 0.049219345452053746 0.04615050913724047 -0.002796005360804366 -0.01341951115216463 -19.79279754175103 -0.013013631073700488 0.01733795888719035 -0.030791061559586025 -0.013294265278830002 0.004113999431932507 0.01926096671983701 0.036345147924728365 -0.01746663856636934 24.071292540522226 0.004843611613930026 -0.04366212334475841 28.83704405973308 -0.024203119959268597 -0.04832325583721491 28.874300536194248 0.03443823788381304 0.02425132503897621 8.303029189244878 1.891759537357265 11.532241916404633 -67.47902023291942 13.497533894721013 -20.70490070646191 -68.01594589774767 7.388241874354593 -100.85040933368533 -21.395318827763685 0.601797754098033 -1.6976063949456461 -0.5173415705374347 0.05061898740254839 -8.10237343855548 0.006914237216172125 -0.028188389961814785 44.5449574875562 -0.03635750368203004 -0.03384975776068497 44.58157004633101 12.453530886263373 0.024534001268774495 -0.018176597819448605 -0.036562521058815016 0.030991399102404615 0.01894178146485492 -0.0014775485516257422 -0.025822506091525026 0.041023462681948716 11.117968517407926 0.008510072227122278 0.028282088249597923 -0.040621585061059305 0.035400626965507505 -0.019473093306498615 0.02140241958839883 -0.04914822792264848 0.0025886101258059506 4.727317541519515 -0.0325818554120084 0.01889834528108276 -0.001445370578202542 -0.0021201157575688025 -0.005073045709129004 0.023684360653222557 -0.024870763951654357 -0.025364545728551607 -5.64959666764087 0.024978264586737305 0.03785903510614552 -6.7192889131724245 0.008794073014951853 0.008535848706838508 -6.76603477066893 0.03930658270175471 0.002111564986900196 0.01941342259374844 -0.027934859460400845 0.031846256979086655 8.03077489587378 3.472351949676201 -19.182229326964947 0.028047029748849053 10.385602733362221 -0.01722122347346788 -5.609862342267542 -15.6448135840735 3.2162998944298553 -0.002874180864111324 -0.03767494079394066 -0.030743169549860526 -0.023185591972565704 4.687696235429182 -0.039283392191991756 12.437268274726692 -8.243061613875902 6.919261927782418 -0.009629393049988702 46.35848000009741 0.029143476195876095 -4.297044839208065 -14.74381554548185 -3.809084555343315 -0.003056626595137973 -0.014016603087007503 -0.04628692840379362 0.016186874819795003 -10.749675579993951 0.0015842193217734527 
0.024997885959777588 -0.008080970497727727 0.046120627000033214 0.03803315633007506 0.04317390260680573 0.007589461894340609 -3.2235013784938467 0.9578060900271874 -0.7860218458677187 -0.7615473266339506 3.4392829754298373 0.32632337972279946 -0.878750683652326 -2.001202474510567 -2.23913211238789 -1.0116981996658128 -0.09407408298577553 -0.9497415650395136 -1.8816017956793467 11.454231296865869 4.5860821696080025 -0.2284346799381041 -0.58783315707656 9.922394549677856 -1.49302840158219 -15.534780123585762 0.8235125751401908 -2.1421902530102175 1.299064966130171 -12.638877239721246 69.57777970670995 15.161677570378313 5.306174083952013 47.85114086890773 9.023518563986256 93.9796866302674 22.0666443873824 -0.23219441586154405 -4.525148598562494 4.532977488506487 -0.1412497343610888 -1.587073206153415 -0.009747105324136454 -0.021777021135311485 -56.19800290812166 0.019051748192907118 0.04817943201126349 -56.25140636199536 -38.733300792005345 0.00036750863749615526 -0.03166691332226281 0.01403249976937446 0.006485444101996919 -0.018205213183529072 -0.004093612648407822 -0.024825608697949496 0.04076821054227469 -36.64993416475113 -0.004746750886128097 0.041805228391781676 -0.007867814465646307 0.005476162211067043 0.0016860027655934463 0.04824754707183049 0.0363859588858822 0.008375990569167794 -19.801961434859823 -0.009786478510394318 -0.0048842010942705865 0.013245074749937438 -0.0123142363328024 -0.02000855296065073 -0.00592337814004176 -0.021194299403070403 -0.038241947664331664 24.031994906024646 -0.03326071934093402 -0.04431606137815435 28.818582649677946 0.03203541775318564 0.019018329709712928 28.892237536586418 0.028288857574348476 0.028830232623695166 8.313869574937293 1.946321213426292 11.403671181034817 -67.68843289114002 13.911770172515803 -21.160181868672357 -66.32658608666249 7.3824102116962935 -99.65122074485659 -21.179084019770823 -0.042641626528379765 -0.9452058283413042 -0.5009890744874975 0.04479412504116406 -8.149357375964225 -0.048896209977143064 -0.04002085950952284 44.55717119018718 -0.017552032555092394 0.01548673551181525 44.5724715409543 12.486744166990395 0.03560266378760436 0.030400921100079716 0.00772993851027302 0.04502524730003587 -0.026213176593159578 0.020578272690726356 0.022960878774830728 -0.027392589040169186 11.069817563300951 0.025989373282805966 -0.04185485944022183 -0.04918145286598292 -0.035371651852687445 0.03844566147800136 0.015462187924140483 -0.004239174369966623 0.016645924042146147 4.775503636167724 -0.02178957722425973 -0.042117649614353124 -0.03212310182681962 -0.024372400899079175 -0.009797521234757432 0.0009570556930462572 -0.011658863881195945 0.0470939922476548 -5.605810207003455 0.037168326889326773 -0.04325067949315189 -6.755227705460939 -0.019370109662750275 -0.04736049524577628 -6.744806571848911 0.024963787130807255 0.00028461401331681584 -0.020979994133999036 0.011794863905628773 -0.006340045144452167 8.060508238252826 3.5206226055989793 -19.26592293217767 0.030102656449887664 10.386640290806042 -0.0040331307912963195 -5.6400267398904145 -15.647654719931877 3.2125639170057836 0.03218821853552091 0.008979914876261931 -0.008656212004159742 -0.013253530526729956 4.678707858319153 0.009065910778365105 12.484362357948982 -8.254089923975268 6.836462543983493 -0.025462558926627597 46.39455256965213 -0.01713027002968906 -4.3527245880807754 -14.733286514139671 -3.807574037769017 0.006867250903999796 0.025551120293797257 0.020568129722497833 -0.01032697398621099 -10.74371432656476 -0.04705199788634195 
-0.025105300080201506 -0.043101877914466596 -0.020918886321865126 -0.04739958505371547 -0.04558722067425619 -0.011256805657705975 -3.188276229502338 0.8156676390150759 -0.7719416991044714 -0.7724253019858814 3.451028052442029 0.36335298939449423 -0.871050932916323 -2.0572047938724523 -2.4137902530839077 -0.957642952571687 -0.14117686749357578 -0.9294128536703327 -1.855750399822061 11.492008912245492 4.506062015259838 -0.11614975810914499 -0.552361015870128 9.927663471903914 -1.4924129796897792 -15.449255044500177 0.8616753480241173 -2.4394788028389227 1.3959362811181772 -12.706635848029345 68.92150110771416 13.951673097847358 5.354523178586171 47.674151995729595 8.330238177737948 95.24980327639582 22.642267050441653 -0.287953102809645 -4.509876838123889 4.573167933748328 -0.14977353510226185 -1.6233507681905925 -0.032400921572239005 0.018611178107302267 -56.20195339560054 -0.013130788412433739 -0.014615709691745507 -56.19490629474428 -38.79289325569988 -0.016188954025422912 0.03369492674210727 0.033110714279043545 -0.03506855266508485 -0.03593383448515982 -0.025051507749448785 0.02676588261167348 0.00018936462852191458 -36.66779926305673 0.01210545342420975 0.02656718473878604 0.02434094283102156 -0.0016450892853466057 -0.02017652174366963 -0.028516938161550546 -0.03681330055023861 0.04882914292708968 -19.769320787538543 -0.03434830809205061 -0.03412813738358721 0.021230277969780234 0.03680020076493611 -0.005073259497461373 0.047246670144109916 -0.017468538985487482 0.023151382553208123 24.010142413373472 0.03205967372630789 0.004340699910298419 28.881498994530773 0.007253077163077062 -0.029136741889392394 28.81691335771315 -0.003001049220425444 0.010643541312632735 8.623288746890928 2.039903958002872 11.357663307422722 -67.6516946053168 13.525285974314288 -21.622970197615206 -67.28137658944242 7.139422776740574 -99.14192561614473 -21.199480544629527 -0.8118483366899245 -0.3875302404245579 -0.47274827970074584 0.03582206784277367 -8.121415168804079 -0.031093172159621364 0.043069237227384816 44.53210005536684 0.018578786370949608 0.013182202734621257 44.58163411342125 12.475361889095103 0.025856853810456975 -0.04116942257767914 -0.030235966131741957 -0.03435268670614934 0.009134856237190616 0.003994224072961119 -0.02509191258002568 -0.021681176483507886 11.11581672733467 0.0037238412026852014 -0.021594458364498206 -0.03158524027894154 0.005050561805707057 -0.03419648336038202 0.04329491140771308 -0.0028425698895067813 0.013640118524121272 4.754581809007616 -0.04896292576169998 0.016849201466814227 -0.04546499506117243 0.001518520965149712 -0.01879772161037087 -0.011885041739150847 -0.013937267057969212 0.02933329418575048 -5.628239643293833 0.024288627690307575 0.047978507404566675 -6.767603945149156 -0.002041290413541407 0.00036694868005300265 -6.728024690224052 0.017451890487268445 -0.028213055813033898 -0.03060983124464305 0.0012667061136225936 -0.04064130984862512 8.051368121784783 3.484597940308036 -19.23823277397486 -0.004506142963992888 10.408863947313222 0.036825241839365974 -5.6499547088060105 -15.638006929024172 3.1687327447330556 0.00860071360725302 -0.0008183568406582498 -0.020390428392582087 0.045968311920067007 4.705353823513249 -0.024093452851212137 12.458856304457523 -8.237798658197791 6.9117852152496075 0.034754923003995124 46.36187689817691 -0.004657759411212168 -4.345614566618481 -14.741410920448587 -3.846629040286192 -0.02306299606831305 0.020756178243152786 0.026689666664856764 0.02946804823902319 -10.754067457120815 -0.004284752321072786 
